<svg width="90" height="25" viewBox="0 0 90 25" fill="none" xmlns="http://www.w3.org/2000/svg">
<g clip-path="url(#clip0_1_5220)">
<mask id="mask0_1_5220" style="mask-type:luminance" maskUnits="userSpaceOnUse" x="0" y="0" width="90" height="25">
<path d="M89.4214 0H0V24.3621H89.4214V0Z" fill="white"/>
</mask>
<g mask="url(#mask0_1_5220)">
<path d="M16.9566 3.91781C15.9637 2.74101 14.6566 1.79079 13.028 1.07448C11.4066 0.358158 9.4423 0 7.1423 0H0.535156V17.0673H4.27087V3.66199H8.16373C9.05659 3.66199 9.96373 3.81548 10.878 4.12248C11.7923 4.42947 12.6423 4.91189 13.4137 5.57704C14.1923 6.24219 14.8209 7.10469 15.2994 8.15724C15.778 9.2171 16.0209 10.4816 16.0209 11.9654C16.0209 13.2957 15.8137 14.4652 15.3994 15.4812C14.9852 16.4972 14.4066 17.3451 13.6566 18.0322C12.9137 18.7193 12.0209 19.2382 10.9923 19.6037C9.9923 19.9472 8.8923 20.1227 7.68516 20.1373V23.7993H8.2923C9.82801 23.7993 11.2923 23.5361 12.6994 22.9952C14.1066 22.4616 15.3423 21.6869 16.4066 20.6782C17.4709 19.6622 18.3137 18.4488 18.928 17.0381C19.5423 15.6201 19.8566 14.0193 19.8566 12.2359C19.8566 10.774 19.6209 9.31943 19.1566 7.87218C18.678 6.41031 17.9494 5.09462 16.9566 3.91781Z" fill="#F0F3FA"/>
<path d="M35.1928 10.9957C33.9928 9.89926 32.4642 9.34375 30.6142 9.34375C29.2071 9.34375 27.9285 9.67267 26.7642 10.3378C25.6071 11.003 24.6857 11.8874 23.9999 12.9984C23.3214 14.1094 22.9785 15.3593 22.9785 16.7554C22.9785 18.1954 23.2785 19.4672 23.8714 20.5782C24.4642 21.6892 25.3357 22.5591 26.4714 23.195C27.6071 23.8236 28.9571 24.1452 30.5071 24.1452C31.2928 24.1452 32.1071 24.0063 32.9499 23.7359C33.7928 23.4654 34.5642 23.1 35.2642 22.6395L33.6357 19.9277C33.1857 20.2566 32.7071 20.5124 32.1999 20.7098C31.6857 20.9071 31.1571 21.0022 30.6071 21.0022C29.8214 21.0022 29.1142 20.8194 28.4999 20.4613C27.9785 20.1616 27.5571 19.745 27.2214 19.226L37.5999 15.6444C37.1999 13.649 36.3928 12.0994 35.1928 10.9957ZM26.5214 17.1282C26.5071 16.9382 26.4928 16.7408 26.4928 16.5362C26.4928 15.6883 26.6571 14.9427 26.9857 14.2995C27.3142 13.6563 27.7642 13.1519 28.3428 12.7791C28.9142 12.4064 29.5785 12.2236 30.3214 12.2236C31.2571 12.2236 31.9928 12.4722 32.5214 12.9619C33.0071 13.4077 33.3642 13.934 33.5999 14.5334L26.5214 17.1282Z" fill="#F0F3FA"/>
<path d="M46.9005 17.8623L43.1934 9.96094H38.9434L46.7005 24.1118H46.8648L54.2719 9.96094H50.2505L46.9005 17.8623Z" fill="#F0F3FA"/>
<path d="M65.1059 16.2702C64.6059 15.9413 64.0273 15.6709 63.3631 15.4516C62.8916 15.2762 62.4131 15.1154 61.9131 14.9619C61.4131 14.8084 61.0059 14.6037 60.6845 14.3406C60.3631 14.0774 60.2131 13.7339 60.2345 13.2953C60.2345 13.0103 60.3273 12.7691 60.5202 12.5571C60.7131 12.3524 60.9559 12.1843 61.2559 12.0527C61.5559 11.9212 61.8916 11.87 62.2773 11.8919C62.7059 11.9139 63.1773 12.0308 63.6988 12.2501C64.2202 12.4694 64.6702 12.7617 65.0559 13.1345L66.4273 10.9125C65.7702 10.3862 65.0559 10.0061 64.2845 9.77222C63.5202 9.53101 62.6345 9.41406 61.6345 9.41406C60.4845 9.41406 59.5416 9.62603 58.8059 10.05C58.0702 10.4739 57.5202 11.0221 57.1631 11.7019C56.7988 12.3744 56.6202 13.0614 56.6202 13.7631C56.6202 14.7207 56.9059 15.5612 57.4845 16.2775C58.0559 16.9939 58.9345 17.5421 60.1059 17.9148C60.6202 18.0903 61.1059 18.2584 61.5773 18.4192C62.0488 18.58 62.4202 18.7847 62.7131 19.0259C62.9988 19.2671 63.1416 19.6106 63.1416 20.0711C63.1416 20.4219 63.0488 20.6997 62.8559 20.919C62.6631 21.1383 62.4059 21.2918 62.0773 21.3941C61.7488 21.4891 61.3773 21.5403 60.9773 21.5403C60.4416 21.5403 59.8845 21.4014 59.2988 21.1163C58.7131 20.8313 58.1202 20.4073 57.5273 19.8445L56.0273 21.935C56.6416 22.6294 57.4131 23.163 58.3416 23.5357C59.2702 23.9085 60.2416 24.0912 61.2631 24.0912C62.5202 24.0912 63.5488 23.8647 64.3416 23.4188C65.1416 22.9729 65.7416 22.3882 66.1416 21.6718C66.5488 20.9555 66.7488 20.1807 66.7488 19.3548C66.7488 18.6385 66.5988 18.0245 66.2988 17.5274C66.0059 17.0085 65.6059 16.5992 65.1059 16.2702Z" fill="#F0F3FA"/>
<path d="M81.7863 11.7827L89.1363 0H84.6363L79.7434 8.56656L74.2934 0H69.5363L76.8648 11.5195L69.2148 23.7846H73.8077L78.9434 14.7941L84.6648 23.7846H89.422L81.7863 11.7827Z" fill="#F0F3FA"/>
<path d="M4.77143 21.9179C4.77143 23.2628 3.7 24.3592 2.38571 24.3592C1.07143 24.3592 0 23.2628 0 21.9179C0 20.573 1.07143 19.4766 2.38571 19.4766C3.70714 19.4766 4.77143 20.5657 4.77143 21.9179Z" fill="#154FE6"/>
</g>
</g>
<defs>
<clipPath id="clip0_1_5220">
<rect width="90" height="24.8518" fill="white"/>
</clipPath>
</defs>
</svg>
