<svg width="32" height="32" viewBox="0 0 32 32" fill="none" xmlns="http://www.w3.org/2000/svg">
<path d="M5.33398 16.0013C5.33398 16.3549 5.47446 16.6941 5.72451 16.9441C5.97456 17.1942 6.3137 17.3346 6.66732 17.3346C7.02094 17.3346 7.36008 17.1942 7.61013 16.9441C7.86017 16.6941 8.00065 16.3549 8.00065 16.0013C8.00065 15.6477 7.86017 15.3085 7.61013 15.0585C7.36008 14.8084 7.02094 14.668 6.66732 14.668C6.3137 14.668 5.97456 14.8084 5.72451 15.0585C5.47446 15.3085 5.33398 15.6477 5.33398 16.0013Z" stroke="#F0F3FA" stroke-width="2" stroke-linecap="round" stroke-linejoin="round"/>
<path d="M14.6673 16.0013C14.6673 16.3549 14.8078 16.6941 15.0578 16.9441C15.3079 17.1942 15.647 17.3346 16.0007 17.3346C16.3543 17.3346 16.6934 17.1942 16.9435 16.9441C17.1935 16.6941 17.334 16.3549 17.334 16.0013C17.334 15.6477 17.1935 15.3085 16.9435 15.0585C16.6934 14.8084 16.3543 14.668 16.0007 14.668C15.647 14.668 15.3079 14.8084 15.0578 15.0585C14.8078 15.3085 14.6673 15.6477 14.6673 16.0013Z" stroke="#F0F3FA" stroke-width="2" stroke-linecap="round" stroke-linejoin="round"/>
<path d="M24.0006 16.0013C24.0006 16.3549 24.1411 16.6941 24.3912 16.9441C24.6412 17.1942 24.9804 17.3346 25.334 17.3346C25.6876 17.3346 26.0267 17.1942 26.2768 16.9441C26.5268 16.6941 26.6673 16.3549 26.6673 16.0013C26.6673 15.6477 26.5268 15.3085 26.2768 15.0585C26.0267 14.8084 25.6876 14.668 25.334 14.668C24.9804 14.668 24.6412 14.8084 24.3912 15.0585C24.1411 15.3085 24.0006 15.6477 24.0006 16.0013Z" stroke="#F0F3FA" stroke-width="2" stroke-linecap="round" stroke-linejoin="round"/>
</svg>
