<svg width="24" height="24" viewBox="0 0 24 24" fill="none" xmlns="http://www.w3.org/2000/svg">
<path d="M16.069 16.0816C15.0345 16.898 13.5862 17.5102 12.1379 17.5102C8.82759 17.5102 6.55172 15.0612 6.55172 11.7959C6.55172 8.53061 8.82759 6.28571 12.1379 6.28571C13.5862 6.28571 15.0345 6.69387 16.069 7.71428L16.6897 8.32653L20 5.2653L19.1724 4.65306C17.3103 3.0204 14.8276 2 12.1379 2C6.34483 2 2 6.28571 2 12C2 17.7143 6.34483 22 12.1379 22C14.8276 22 17.3103 20.9796 19.1724 19.3469L20 18.7347L16.6897 15.4694L16.069 16.0816Z" fill="#F0F3FA"/>
<path d="M12.2246 15.5C14.1576 15.5 15.7246 13.933 15.7246 12C15.7246 10.067 14.1576 8.5 12.2246 8.5C10.2916 8.5 8.72461 10.067 8.72461 12C8.72461 13.933 10.2916 15.5 12.2246 15.5Z" fill="#F0F3FA"/>
</svg>
